<?xml version="1.0" standalone="no"?>
<!DOCTYPE svg PUBLIC "-//W3C//DTD SVG 20010904//EN"
 "http://www.w3.org/TR/2001/REC-SVG-20010904/DTD/svg10.dtd">
<svg version="1.0" xmlns="http://www.w3.org/2000/svg"
 width="242.000000pt" height="242.000000pt" viewBox="0 0 242.000000 242.000000"
 preserveAspectRatio="xMidYMid meet">

<g transform="translate(0.000000,242.000000) scale(0.100000,-0.100000)"
fill="#000000" stroke="none">
<path d="M1323 2391 c-14 -13 -19 -28 -16 -41 5 -19 1 -20 -98 -20 -114 0
-146 -9 -104 -28 14 -7 32 -12 40 -12 9 0 15 -10 15 -25 0 -18 -5 -25 -20 -25
-16 0 -18 -4 -10 -24 10 -27 -13 -56 -43 -56 -28 0 -21 39 8 46 21 5 23 9 13
21 -6 8 -22 13 -35 10 -26 -5 -38 18 -26 49 6 17 8 17 13 -5 3 -14 11 -26 18
-29 16 -5 16 30 0 46 -16 16 -55 15 -61 0 -4 -10 -8 -10 -16 2 -7 11 -15 12
-33 3 -13 -6 -45 -16 -73 -22 -27 -7 -63 -18 -80 -25 -16 -8 -45 -19 -62 -26
-39 -15 -45 -40 -9 -33 18 4 26 0 31 -16 3 -12 11 -21 16 -21 6 0 5 -8 -1 -21
-9 -15 -8 -24 1 -35 16 -20 55 -14 51 7 -1 10 7 19 20 23 26 7 46 -14 55 -56
3 -14 14 -28 24 -31 16 -4 18 -1 13 21 -4 15 -12 38 -19 52 -11 23 -30 72 -42
111 -6 20 27 35 39 17 4 -7 17 -44 29 -83 11 -38 22 -76 24 -82 3 -7 12 -13
21 -13 11 0 14 5 9 18 -4 9 -12 37 -17 62 -6 25 -14 49 -19 55 -15 15 -11 65
5 65 17 0 46 -43 46 -68 0 -48 77 -83 104 -47 8 10 23 13 53 8 38 -5 42 -8 45
-36 2 -17 8 -32 14 -34 14 -5 24 52 24 140 0 60 2 68 18 65 15 -3 17 -14 13
-99 -2 -74 0 -97 12 -107 12 -10 15 0 22 70 4 46 8 93 9 106 1 18 7 22 34 22
34 0 36 -5 26 -59 -4 -17 -10 -28 -15 -25 -5 3 -9 -6 -9 -20 0 -19 5 -26 20
-26 11 0 20 4 20 8 0 5 14 6 31 4 26 -4 30 -8 24 -26 -13 -37 -17 -96 -8 -96
5 0 15 21 22 48 12 40 49 140 57 150 5 8 114 -34 114 -43 0 -5 -5 -17 -10 -25
-8 -13 -10 -12 -10 3 0 13 -8 17 -32 17 -35 -1 -68 -20 -68 -39 0 -23 31 -71
45 -71 18 0 17 3 6 -38 -8 -25 -7 -32 5 -32 8 0 14 9 14 20 0 11 4 20 8 20 5
0 14 11 20 25 12 26 62 37 62 13 -1 -21 -26 -48 -44 -48 -9 0 -16 -8 -16 -20
0 -11 3 -20 8 -20 16 0 71 56 73 75 4 37 -1 55 -14 55 -7 0 -22 7 -33 16 -10
8 -13 12 -6 9 9 -5 15 1 19 14 7 26 5 26 45 1 35 -21 68 -26 68 -10 0 13 -147
82 -225 106 -52 16 -86 38 -97 63 -7 16 -77 61 -104 67 -21 4 -35 0 -51 -15z
m124 -43 c35 -33 29 -41 -27 -35 -61 7 -91 22 -84 42 10 24 83 19 111 -7z
m-207 -74 c-6 -14 -10 -39 -10 -55 0 -26 -3 -29 -33 -29 -44 0 -50 7 -25 32
15 15 19 28 14 49 -5 28 -4 29 29 29 33 0 34 -1 25 -26z m270 -21 c-1 -29 -25
-53 -54 -53 -27 0 -30 8 -20 48 5 17 14 22 40 22 26 0 34 -4 34 -17z m-642
-45 c11 -42 7 -53 -21 -53 -15 0 -27 10 -38 33 -16 30 -15 32 2 32 10 0 21 5
24 10 12 19 24 10 33 -22z m759 -49 c22 -8 24 -12 13 -19 -8 -6 -30 -10 -47
-10 -26 0 -33 4 -33 20 0 23 23 26 67 9z"/>
<path d="M563 2120 c-10 -11 -23 -20 -30 -20 -7 0 -13 -5 -13 -10 0 -6 -7 -13
-16 -17 -9 -3 -26 -15 -38 -27 -12 -12 -31 -28 -42 -37 -10 -8 -28 -28 -39
-43 -35 -49 -69 -76 -105 -82 -41 -8 -115 -56 -130 -84 -13 -25 3 -60 28 -60
10 0 26 -9 35 -21 13 -14 22 -18 30 -11 8 7 39 -1 96 -24 47 -19 96 -34 110
-33 16 0 20 3 11 6 -8 3 -44 19 -80 36 -36 16 -76 33 -89 38 -19 8 -22 14 -16
37 3 15 13 33 20 41 13 13 17 12 35 -4 11 -10 19 -24 16 -31 -8 -20 42 -34
117 -33 l72 2 -58 6 c-35 4 -62 12 -67 21 -13 21 -13 23 16 44 25 18 26 18 75
-7 26 -14 51 -22 53 -18 5 7 -77 71 -90 71 -3 0 -15 9 -27 21 -12 11 -33 25
-47 31 -24 9 -24 10 -6 20 11 6 39 31 63 55 41 42 63 49 63 17 0 -8 -7 -14
-15 -14 -8 0 -15 -4 -15 -9 0 -5 -8 -17 -17 -26 -15 -16 -15 -20 -2 -44 8 -15
25 -27 39 -29 14 -2 29 -8 34 -13 13 -12 76 -12 76 1 0 6 -13 10 -30 10 -31 0
-81 18 -92 35 -7 9 38 65 52 65 3 0 27 -20 52 -45 44 -42 68 -55 68 -37 0 4
-16 22 -35 41 -19 18 -35 36 -35 39 0 4 -18 20 -39 36 -23 17 -37 34 -34 42 9
24 37 16 76 -21 20 -19 35 -35 32 -35 -3 0 3 -10 15 -22 11 -12 20 -25 20 -28
0 -10 52 -32 59 -24 3 3 -4 13 -16 21 -13 9 -23 21 -23 28 0 8 -4 15 -9 17 -4
2 -27 25 -51 52 -38 45 -41 51 -25 62 9 7 14 17 10 23 -9 16 -23 13 -42 -9z
m-172 -240 c23 -13 26 -58 4 -66 -8 -3 -28 0 -44 7 -28 13 -29 14 -15 41 16
30 25 33 55 18z m-98 -30 c-3 -11 -8 -20 -12 -20 -3 0 -17 -18 -31 -40 -30
-48 -63 -52 -68 -8 -3 22 4 31 35 51 22 14 48 27 59 30 10 2 20 5 21 6 0 0 -1
-8 -4 -19z"/>
<path d="M1968 2126 c-10 -7 -18 -18 -18 -23 0 -6 -9 -13 -21 -16 -12 -3 -18
-10 -14 -17 4 -6 -6 -22 -22 -36 -15 -13 -24 -24 -20 -24 4 0 2 -6 -5 -14 -7
-8 -16 -12 -20 -9 -5 2 -8 0 -8 -5 0 -5 -13 -23 -30 -40 -33 -34 -39 -58 -14
-48 9 3 18 6 20 6 2 0 4 5 4 11 0 6 28 39 63 73 l63 62 22 -21 c12 -11 35 -31
51 -45 16 -14 30 -28 30 -31 1 -10 -86 -69 -102 -69 -21 0 -38 25 -31 44 7 18
49 22 59 6 9 -15 35 -12 35 4 0 14 -41 46 -60 46 -6 0 -22 -11 -37 -24 -29
-27 -34 -73 -9 -91 22 -16 20 -32 -4 -40 -17 -5 -29 -25 -15 -25 13 0 85 43
85 51 0 5 4 9 10 9 9 0 35 19 65 47 18 18 36 9 60 -30 28 -46 28 -47 11 -47
-9 0 -16 4 -16 10 0 5 -10 14 -21 21 -19 10 -25 7 -45 -17 -13 -16 -23 -25
-24 -20 0 5 -9 1 -20 -9 -19 -17 -29 -75 -12 -75 4 0 15 -7 26 -15 18 -13 17
-15 -10 -40 -16 -15 -24 -25 -19 -23 19 8 61 26 135 61 53 25 77 32 82 24 19
-30 6 -43 -75 -74 -45 -18 -88 -33 -94 -33 -6 0 -14 -7 -17 -16 -5 -12 -2 -15
11 -9 10 4 29 11 43 15 14 5 56 20 93 33 47 18 69 22 71 14 2 -7 9 -32 16 -57
6 -25 18 -58 26 -73 12 -24 12 -29 -1 -33 -20 -8 -48 3 -40 15 3 5 0 13 -6 16
-6 4 -8 18 -5 30 8 30 -23 54 -59 47 -24 -4 -121 -90 -112 -99 3 -2 27 16 53
42 53 50 77 54 82 12 3 -21 -1 -27 -17 -27 -19 0 -38 -17 -28 -26 2 -2 16 0
30 5 17 7 28 7 32 1 11 -18 -22 -38 -71 -43 -27 -3 -51 -6 -54 -7 -3 -1 -8 -2
-12 -1 -5 0 -8 -6 -8 -15 0 -10 6 -14 18 -10 22 6 115 23 170 30 39 6 42 5 42
-18 0 -13 3 -31 6 -40 5 -13 -1 -16 -25 -16 -21 0 -31 5 -31 15 0 24 -38 18
-66 -11 -19 -18 -24 -31 -20 -50 6 -22 4 -24 -30 -24 -19 0 -42 -6 -49 -14
-12 -11 -4 -14 47 -20 34 -3 86 -6 117 -6 32 0 62 -5 68 -11 38 -38 41 62 8
216 -18 87 -32 133 -42 148 -5 7 -15 30 -22 52 -8 21 -28 60 -46 85 -18 25
-35 56 -39 67 -4 12 -13 24 -21 27 -8 3 -15 13 -15 22 0 10 -3 14 -7 11 -12
-13 -29 39 -25 75 2 20 -1 39 -7 42 -6 4 -11 18 -11 30 0 27 -45 76 -69 76 -9
0 -24 -7 -33 -14z m64 -39 c21 -16 37 -112 18 -105 -8 2 -18 13 -24 23 -16 28
-33 45 -45 45 -6 0 -11 11 -11 25 0 19 5 25 23 25 12 0 29 -6 39 -13z m52
-272 c18 -18 43 -20 49 -2 3 8 10 6 21 -8 8 -11 16 -23 16 -26 0 -8 -94 -49
-114 -49 -26 0 -66 30 -66 51 0 28 15 31 43 9 14 -11 28 -16 31 -11 4 5 2 12
-4 16 -13 8 -13 35 -1 35 5 0 16 -7 25 -15z m118 -416 c2 -6 23 -12 46 -13 39
-1 42 -3 42 -29 0 -28 -1 -28 -52 -25 l-53 3 -3 38 c-3 34 11 52 20 26z"/>
<path d="M1337 1992 c-13 -3 -17 -10 -14 -23 3 -12 0 -19 -9 -19 -8 0 -14 -5
-14 -11 0 -5 5 -7 11 -3 8 4 9 -3 5 -25 -3 -17 -9 -44 -12 -61 -4 -22 -2 -30
9 -30 10 0 16 15 20 45 8 73 32 77 29 6 -2 -38 7 -48 45 -57 23 -4 52 26 55
59 5 49 22 38 23 -15 0 -42 -2 -48 -20 -49 -20 0 -20 0 0 -8 11 -5 25 -4 33 1
9 8 12 5 12 -12 0 -19 2 -20 15 -10 8 7 15 19 15 26 0 8 4 14 9 14 5 0 11 9
14 20 3 11 12 20 21 20 18 0 12 -19 -25 -72 -21 -28 -23 -38 -11 -38 4 0 16
15 27 33 23 39 40 57 54 57 22 0 10 15 -21 29 -18 7 -52 22 -75 32 -24 10 -53
19 -65 19 -14 0 -31 11 -43 30 -21 31 -58 49 -88 42z m68 -43 c17 -12 22 -18
12 -15 -10 3 -32 6 -48 6 -19 0 -29 5 -29 15 0 21 30 18 65 -6z m29 -50 c-6
-10 -48 -12 -57 -3 -3 3 0 12 6 19 13 14 61 -1 51 -16z m16 -28 c0 -6 -4 -13
-10 -16 -5 -3 -10 1 -10 9 0 9 5 16 10 16 6 0 10 -4 10 -9z m96 -7 c-3 -9 -6
-20 -6 -25 0 -5 -9 -9 -20 -9 -11 0 -20 4 -20 9 0 23 14 41 32 41 14 0 18 -5
14 -16z m-122 -19 c4 -11 -1 -15 -19 -15 -16 0 -25 6 -25 15 0 8 9 15 19 15
10 0 21 -7 25 -15z"/>
<path d="M1122 1935 c2 -13 -5 -23 -19 -29 -21 -10 -33 -40 -25 -64 6 -19 22
-14 22 8 0 21 15 27 25 10 4 -6 1 -17 -5 -25 -14 -16 -10 -18 14 -9 17 7 22
44 6 44 -14 0 -12 37 3 43 9 3 7 10 -6 23 -18 19 -18 19 -15 -1z"/>
<path d="M1050 1920 c0 -11 5 -20 10 -20 6 0 10 9 10 20 0 11 -4 20 -10 20 -5
0 -10 -9 -10 -20z"/>
<path d="M895 1882 c-20 -11 -25 -17 -15 -19 25 -6 43 -42 29 -59 -8 -10 -8
-14 0 -14 6 0 11 6 11 13 0 7 7 4 15 -7 24 -32 25 -13 2 33 -16 33 -19 45 -9
48 13 5 17 24 5 22 -5 -1 -21 -8 -38 -17z"/>
<path d="M1000 1865 c-30 -11 -54 -35 -34 -35 22 0 74 26 74 37 0 7 -1 12 -2
12 -2 -1 -19 -7 -38 -14z"/>
<path d="M831 1851 c-7 -5 -10 -14 -6 -21 6 -9 9 -9 16 1 7 12 10 12 21 0 8
-8 8 -11 1 -7 -13 7 -6 -31 8 -40 5 -3 6 1 3 9 -3 8 0 18 6 22 8 5 6 13 -6 26
-19 21 -23 22 -43 10z"/>
<path d="M1180 1825 c0 -22 4 -34 10 -30 6 3 10 17 10 30 0 13 -4 27 -10 30
-6 4 -10 -8 -10 -30z"/>
<path d="M772 1810 c-12 -11 -25 -20 -29 -20 -12 0 -104 -89 -144 -140 -41
-51 -102 -170 -93 -179 4 -3 9 0 11 7 6 17 33 15 33 -3 0 -8 7 -15 15 -15 27
0 85 28 91 45 3 8 14 15 23 15 9 0 -10 13 -41 28 -55 26 -70 43 -48 57 5 3 27
-6 49 -20 23 -14 49 -25 58 -24 12 0 8 4 -9 11 -16 5 -28 13 -28 18 0 4 -9 10
-20 13 -21 5 -37 33 -26 44 3 4 12 1 18 -5 7 -7 17 -12 22 -12 6 0 5 5 -2 12
-16 16 -15 48 1 48 22 -1 50 -29 44 -45 -8 -18 19 -21 26 -2 4 7 8 3 12 -10 7
-23 35 -33 35 -13 0 6 5 10 11 10 7 0 9 -10 7 -25 -6 -27 9 -35 18 -10 8 20
-13 45 -37 45 -10 0 -27 7 -36 14 -10 8 -29 24 -43 35 l-25 21 35 30 c19 16
38 30 43 30 12 0 8 -23 -9 -41 -19 -22 -11 -39 19 -38 12 0 16 3 10 6 -18 7
-16 32 2 39 9 4 23 -4 36 -20 11 -14 26 -26 32 -25 8 0 8 2 0 6 -7 2 -13 9
-13 15 0 6 -11 19 -25 30 -24 19 -35 58 -16 58 5 0 21 -15 35 -32 15 -18 31
-39 37 -45 5 -7 14 -13 20 -13 6 0 -6 20 -26 44 -22 28 -33 49 -29 60 9 23
-17 21 -44 -4z m-165 -281 c-6 -22 3 -25 21 -7 9 9 12 8 12 -4 0 -24 -25 -40
-54 -32 -29 7 -51 38 -40 56 5 7 10 4 15 -10 11 -30 29 -28 29 4 0 15 4 23 11
18 6 -3 9 -15 6 -25z"/>
<path d="M1770 1752 c0 -5 7 -15 15 -22 8 -7 15 -17 15 -23 0 -5 -8 -3 -18 6
-23 21 -42 22 -42 2 0 -8 -5 -15 -11 -15 -16 0 -38 -31 -39 -52 0 -10 7 -18
15 -18 8 0 15 -7 15 -15 0 -8 -9 -15 -20 -15 -13 0 -22 10 -29 33 l-10 32 2
-35 c2 -30 6 -35 28 -38 31 -4 58 23 41 40 -19 19 -15 60 5 56 23 -4 28 -25 6
-31 -12 -3 -8 -5 10 -6 31 -1 34 10 11 34 -21 20 -10 33 12 14 9 -8 28 -12 41
-11 21 3 24 0 21 -20 -2 -15 -10 -23 -23 -23 -11 0 -21 -8 -23 -19 -3 -14 0
-17 12 -13 26 10 29 -12 7 -49 -24 -40 -25 -44 -11 -44 5 0 12 11 16 25 8 33
26 46 44 34 13 -8 12 -12 -5 -25 -20 -16 -20 -16 3 -11 15 3 22 1 22 -9 0 -13
-4 -16 -32 -18 -14 -1 -38 -21 -38 -30 0 -4 8 -2 18 3 37 20 104 41 113 36 20
-13 6 -25 -51 -41 -33 -9 -60 -21 -60 -25 0 -13 17 -11 52 7 19 10 44 14 64
11 l34 -6 -15 35 c-22 53 -59 112 -107 169 -46 55 -88 92 -88 77z m110 -129
c8 -16 21 -36 28 -45 9 -10 11 -24 7 -35 -6 -15 -10 -13 -22 16 -8 18 -23 35
-33 38 -19 5 -27 33 -13 46 12 12 19 7 33 -20z"/>
<path d="M590 1735 c0 -8 0 -18 -1 -22 0 -4 3 -9 8 -10 4 -2 8 8 8 22 0 14 -3
25 -7 25 -5 0 -8 -7 -8 -15z"/>
<path d="M1576 1729 c-11 -10 -15 -19 -9 -19 5 0 18 9 28 20 23 26 6 25 -19
-1z"/>
<path d="M1178 1713 c7 -3 16 -2 19 1 4 3 -2 6 -13 5 -11 0 -14 -3 -6 -6z"/>
<path d="M1240 1674 c-6 -14 -17 -32 -25 -40 -8 -9 -15 -22 -15 -30 0 -8 -4
-14 -10 -14 -5 0 -10 -7 -10 -15 0 -8 -4 -15 -9 -15 -5 0 -13 -9 -16 -21 -4
-12 -13 -29 -21 -38 -7 -9 -20 -25 -28 -36 -13 -18 -27 -20 -170 -20 -85 0
-158 -4 -162 -7 -9 -9 22 -84 44 -108 21 -23 92 -160 92 -177 0 -7 -3 -13 -8
-13 -4 0 -27 -31 -51 -70 -23 -38 -46 -70 -49 -70 -4 0 -20 -25 -37 -55 l-30
-55 -18 22 c-14 17 -12 12 4 -17 25 -45 84 -115 108 -129 9 -5 -8 16 -36 48
-29 32 -53 61 -53 65 0 14 98 20 157 11 32 -6 82 -10 111 -10 44 0 57 -4 73
-22 10 -13 18 -29 19 -36 0 -7 7 -15 15 -18 8 -4 15 -14 15 -23 0 -9 11 -36
25 -60 14 -23 25 -49 25 -57 0 -8 5 -14 11 -14 6 0 9 -8 7 -18 -4 -12 1 -18
14 -19 12 -1 18 3 15 11 -3 6 8 31 24 54 16 24 29 47 29 52 0 6 5 10 10 10 6
0 10 7 10 15 0 9 7 18 15 21 8 4 15 12 15 20 0 8 4 14 9 14 5 0 12 9 16 19 9
29 28 33 193 31 l154 -1 -7 33 c-4 18 -15 46 -24 63 -15 28 -21 36 -48 69 -7
8 -13 22 -13 31 0 9 -7 23 -15 31 -20 21 -20 83 1 91 10 3 14 13 11 25 -4 13
8 34 39 65 24 26 44 53 44 61 0 7 9 25 20 39 11 14 20 29 20 33 0 7 -136 21
-250 26 -30 1 -58 3 -61 3 -3 1 -14 18 -25 39 -10 20 -21 39 -24 42 -7 7 -24
38 -67 120 -19 39 -40 70 -44 70 -5 0 -14 -12 -19 -26z m97 -186 c-3 -8 -6 -5
-6 6 -1 11 2 17 5 13 3 -3 4 -12 1 -19z m42 -45 c15 -11 15 -12 0 -13 -17 0
-30 20 -28 43 0 7 3 5 6 -3 4 -8 13 -20 22 -27z m-336 -28 c10 -4 29 -3 43 3
13 6 31 9 39 6 19 -8 20 -34 2 -34 -8 0 -37 -36 -65 -79 -29 -44 -58 -86 -66
-94 -22 -22 -31 -83 -14 -93 8 -5 24 -31 37 -58 24 -53 43 -76 61 -76 16 0 36
-22 44 -47 11 -33 31 -46 45 -29 13 16 6 56 -10 56 -5 0 -9 6 -9 12 0 7 11 1
25 -14 21 -23 25 -36 23 -78 -2 -36 2 -54 12 -60 22 -14 39 8 38 48 -1 62 1
72 16 72 23 0 27 39 5 50 -32 18 -22 26 29 26 69 -1 82 15 82 103 0 41 -4 71
-10 71 -5 0 -10 12 -10 28 1 25 1 26 12 7 6 -11 16 -23 21 -26 5 -4 7 -16 4
-28 -3 -12 -1 -24 4 -27 15 -9 10 -80 -6 -94 -8 -7 -15 -19 -15 -26 0 -8 -22
-36 -50 -62 -36 -34 -47 -51 -41 -61 18 -28 59 -4 83 49 18 39 28 50 46 50 20
0 22 -4 16 -22 -4 -13 -14 -28 -22 -34 -9 -7 -13 -18 -9 -28 5 -13 1 -19 -13
-23 -11 -3 -20 -8 -20 -12 0 -3 -13 -12 -29 -19 -16 -7 -32 -20 -35 -30 -12
-32 -37 -72 -45 -72 -5 0 -11 -9 -14 -20 -9 -36 -42 -24 -57 19 -7 22 -19 42
-26 45 -8 3 -14 12 -14 21 0 33 -30 62 -73 70 -23 4 -34 10 -24 12 22 6 22 6
-8 53 -14 22 -25 43 -25 46 0 4 -11 21 -24 38 -13 17 -26 41 -30 54 -5 15 -13
21 -22 18 -17 -6 -20 29 -3 39 6 4 8 13 5 20 -2 7 9 28 25 46 16 18 29 38 29
44 0 6 8 20 18 31 36 40 62 77 57 83 -3 7 -116 13 -222 13 -19 0 -33 6 -33 12
0 14 192 14 223 1z m364 -6 c20 -7 24 -12 14 -18 -10 -6 -3 -26 29 -87 23 -43
45 -81 49 -84 4 -3 10 -13 14 -22 3 -10 14 -18 23 -18 11 0 14 -5 10 -16 -3
-9 -6 -24 -6 -35 0 -10 -7 -19 -15 -19 -8 0 -15 -3 -15 -7 -1 -13 -40 -56 -46
-51 -7 8 18 58 29 58 13 0 1 70 -18 106 -8 16 -15 37 -15 47 0 9 -4 17 -9 17
-5 0 -16 16 -26 36 -22 46 -46 74 -63 74 -12 0 -12 3 -2 15 15 18 12 18 47 4z
m-122 -8 c34 -7 26 -9 -47 -10 -53 -1 -88 3 -88 9 0 12 79 12 135 1z m255 -7
c0 -2 -9 -4 -21 -4 -11 0 -18 4 -14 10 5 8 35 3 35 -6z m-315 -124 c0 -11 -11
-15 -37 -15 -21 -1 -42 -5 -46 -10 -15 -17 -42 -105 -44 -145 -2 -35 36 -70
74 -70 37 0 36 -15 -3 -29 -18 -6 -33 -11 -34 -11 -1 0 -16 13 -33 28 -43 39
-63 89 -52 133 17 67 23 79 36 79 8 0 14 6 14 14 0 8 11 17 25 20 14 4 25 10
25 14 0 4 17 7 38 7 26 0 37 -4 37 -15z m79 14 c28 -11 18 -34 -14 -34 -23 0
-30 4 -30 20 0 20 15 25 44 14z m-116 -63 c15 -9 27 -141 13 -141 -37 0 -71
15 -71 31 0 10 5 21 10 24 6 3 10 26 10 51 0 44 10 53 38 35z m152 -25 c0 -12
4 -26 8 -31 13 -15 -7 -92 -25 -99 -9 -4 -24 -4 -34 -1 -15 5 -17 13 -12 56 4
33 2 49 -5 49 -9 0 -9 6 0 25 18 40 68 41 68 1z m-88 -58 c-2 -15 -8 -25 -13
-22 -11 6 -12 55 -2 81 6 16 8 15 13 -7 3 -14 4 -37 2 -52z"/>
<path d="M1627 1569 c7 -7 15 -10 18 -7 3 3 -2 9 -12 12 -14 6 -15 5 -6 -5z"/>
<path d="M150 1557 c0 -8 -18 -19 -40 -26 -91 -27 -109 -106 -24 -104 38 1 76
-23 57 -35 -16 -11 -23 -42 -17 -69 5 -20 11 -24 33 -20 14 2 34 8 44 12 14 6
20 2 24 -14 4 -14 11 -20 20 -17 8 3 17 6 20 6 3 0 1 6 -4 13 -17 21 -22 58
-11 83 16 34 24 30 39 -21 14 -46 33 -59 41 -27 6 22 -8 62 -22 62 -5 0 -10 6
-10 14 0 11 10 13 39 9 23 -3 41 -1 45 6 4 6 4 11 -1 12 -4 1 -28 3 -53 5 -82
7 -95 10 -107 17 -7 5 -17 6 -21 3 -15 -9 -35 12 -28 29 5 14 15 15 63 9 32
-4 68 -11 81 -15 31 -12 79 -11 87 1 3 5 0 7 -8 4 -8 -3 -18 -1 -22 5 -3 6
-21 11 -38 12 -18 0 -59 6 -92 13 -45 10 -60 17 -59 30 1 10 -6 16 -17 16 -10
0 -19 -6 -19 -13z m-11 -73 c-9 -34 -14 -40 -37 -39 -21 0 -28 6 -30 24 -3 16
3 28 15 35 17 10 56 24 60 22 1 -1 -3 -20 -8 -42z m110 -61 c3 -2 -2 -11 -11
-19 -12 -13 -20 -14 -37 -5 -12 7 -26 9 -31 6 -6 -3 -10 3 -10 15 0 18 4 20
43 14 23 -4 44 -9 46 -11z m-61 -52 c18 -11 11 -45 -10 -49 -17 -3 -34 30 -23
48 7 12 16 12 33 1z"/>
<path d="M1721 1460 c12 -22 25 -38 27 -35 5 4 -37 75 -44 75 -3 0 5 -18 17
-40z"/>
<path d="M740 1475 c-7 -9 -11 -17 -9 -20 3 -2 10 5 17 15 14 24 10 26 -8 5z"/>
<path d="M710 1425 c-7 -9 -10 -18 -7 -21 3 -3 10 4 17 15 13 25 8 27 -10 6z"/>
<path d="M1778 1343 c21 -55 25 -87 26 -168 0 -55 -2 -113 -6 -130 l-7 -30 14
30 c20 42 19 189 -1 256 -22 72 -37 109 -45 109 -4 0 5 -30 19 -67z"/>
<path d="M680 1365 c-13 -34 -24 -81 -18 -75 8 8 37 100 32 100 -2 0 -9 -11
-14 -25z"/>
<path d="M645 1218 c-3 -35 -2 -88 2 -118 8 -48 9 -39 9 63 0 64 -1 117 -2
117 -1 0 -5 -28 -9 -62z"/>
<path d="M271 1236 c-10 -17 -25 -27 -52 -31 -46 -8 -49 -16 -13 -35 22 -12
25 -20 22 -52 -2 -21 -3 -38 -2 -38 1 0 14 6 28 14 27 14 62 11 72 -5 13 -22
22 -6 12 22 -10 28 -8 33 18 55 24 20 27 25 14 34 -8 5 -25 10 -37 10 -13 0
-23 4 -23 8 0 5 -6 16 -13 26 -12 16 -14 16 -26 -8z"/>
<path d="M2171 1236 c-10 -18 -25 -27 -54 -32 l-41 -6 28 -25 c23 -19 27 -30
24 -58 -2 -19 -3 -35 -2 -35 1 0 14 6 28 14 27 14 62 11 72 -5 13 -22 26 -7
20 24 -5 26 -2 38 14 52 28 25 25 33 -13 40 -20 4 -39 16 -48 31 l-15 25 -13
-25z"/>
<path d="M126 993 c3 -26 10 -52 13 -58 4 -5 8 -21 9 -35 1 -29 22 -70 34 -70
11 0 0 107 -13 132 -24 46 -16 49 108 46 l117 -3 18 -31 c10 -17 20 -45 22
-63 2 -18 9 -38 15 -44 6 -6 11 -19 11 -29 0 -10 4 -18 8 -18 5 0 19 -20 31
-45 12 -25 26 -45 31 -45 4 0 11 -12 14 -26 4 -15 27 -46 52 -70 24 -24 44
-46 44 -48 0 -13 63 -68 99 -87 22 -11 45 -27 52 -35 6 -8 18 -14 25 -14 8 0
14 -4 14 -9 0 -5 21 -14 48 -20 26 -7 56 -18 67 -25 19 -13 49 -19 140 -33 22
-3 45 -9 50 -13 14 -12 215 -11 215 1 0 5 18 9 41 9 22 0 48 4 57 9 9 5 36 11
59 15 40 5 163 64 228 110 44 30 185 177 185 193 0 7 4 13 10 13 5 0 17 15 26
33 9 17 21 35 27 38 5 4 15 22 22 40 28 74 50 124 57 129 9 7 173 2 206 -5 20
-5 22 -9 16 -47 -4 -23 -13 -53 -21 -67 -7 -14 -13 -36 -13 -48 0 -13 -4 -23
-10 -23 -5 0 -10 -6 -10 -14 0 -20 -51 -116 -62 -116 -5 0 -17 -17 -26 -37
-25 -55 -45 -83 -58 -83 -7 0 -15 -11 -18 -25 -3 -13 -15 -29 -26 -35 -11 -6
-18 -15 -15 -21 4 -5 0 -9 -8 -9 -8 0 -17 -7 -20 -15 -4 -8 -24 -23 -47 -35
-22 -11 -46 -29 -52 -40 -7 -11 -19 -20 -26 -20 -7 0 -23 -10 -36 -22 -30 -29
-62 -48 -81 -48 -8 0 -15 -4 -15 -9 0 -5 -23 -14 -50 -21 -27 -7 -50 -16 -50
-21 0 -5 -7 -9 -15 -9 -8 0 -23 -4 -33 -9 -35 -18 -129 -40 -222 -51 -87 -11
-185 -10 -325 6 -50 5 -59 8 -128 38 -21 9 -46 16 -57 16 -10 0 -22 5 -25 10
-3 6 -26 15 -51 21 -24 6 -44 15 -44 20 0 5 -9 9 -20 9 -11 0 -20 4 -20 10 0
5 -11 12 -25 16 -14 3 -25 10 -25 15 0 5 -6 9 -12 9 -7 0 -26 12 -43 26 -16
14 -42 32 -57 40 -15 8 -29 23 -33 34 -3 11 -11 20 -16 20 -12 0 -129 114
-129 127 0 5 -18 35 -40 66 -22 30 -40 60 -40 66 0 5 -6 16 -13 23 -15 15 -47
81 -47 97 0 6 -4 11 -10 11 -5 0 -10 7 -10 15 0 8 -4 15 -10 15 -26 0 8 -84
102 -250 37 -64 200 -229 273 -275 28 -18 57 -40 64 -49 7 -8 28 -18 47 -22
19 -3 34 -10 34 -14 0 -4 18 -12 40 -19 22 -6 40 -15 40 -19 0 -4 21 -14 48
-21 26 -7 56 -19 67 -26 12 -7 41 -15 65 -18 25 -3 83 -11 130 -18 106 -16
172 -16 280 0 47 6 103 14 124 16 22 3 44 9 50 15 5 5 19 10 31 10 11 0 29 6
40 13 11 8 47 24 80 36 84 32 107 43 129 64 11 9 24 17 29 17 16 0 134 97 201
165 42 43 92 110 131 176 6 9 16 23 22 30 13 18 38 90 35 105 -1 7 4 14 13 18
8 3 15 17 15 31 0 14 3 25 8 25 12 0 31 52 38 102 l6 45 -43 6 c-24 4 -80 6
-124 6 -44 0 -85 0 -90 1 -36 8 -55 -1 -55 -24 0 -14 -5 -28 -10 -31 -5 -3
-10 -14 -10 -23 0 -9 -7 -29 -15 -45 -65 -119 -86 -148 -180 -242 -67 -68
-175 -154 -175 -140 0 4 -15 -3 -34 -14 -18 -12 -43 -21 -54 -21 -11 0 -24 -5
-27 -10 -3 -6 -16 -10 -29 -10 -12 0 -28 -6 -34 -12 -10 -10 -64 -13 -202 -13
-138 0 -192 3 -201 13 -7 6 -25 12 -40 12 -15 0 -30 4 -33 9 -3 5 -26 12 -50
15 -25 4 -59 18 -78 31 -18 13 -50 33 -70 45 -21 11 -38 27 -38 35 0 8 -6 15
-13 15 -15 0 -117 95 -117 110 0 5 -16 26 -35 46 -19 19 -35 40 -35 44 0 5
-13 32 -30 60 -16 28 -30 57 -30 65 0 8 -4 15 -10 15 -5 0 -12 22 -16 50 -10
77 -20 82 -189 87 l-146 5 7 -49z"/>
<path d="M671 1005 c1 -19 18 -51 18 -35 0 8 -4 22 -9 30 -5 8 -9 11 -9 5z"/>
<path d="M1751 935 c-19 -38 -41 -78 -49 -88 -14 -16 -14 -17 -1 -12 9 3 24
22 35 42 10 20 27 52 37 71 10 19 17 39 15 45 -2 7 -18 -19 -37 -58z"/>
<path d="M311 878 c-5 -13 -12 -31 -15 -40 -8 -25 -46 -23 -46 2 0 11 5 20 10
20 6 0 10 5 10 10 0 14 -13 13 -35 -3 -13 -10 -16 -21 -12 -39 6 -21 12 -25
39 -24 40 1 64 23 70 65 5 36 -8 42 -21 9z"/>
<path d="M363 870 c0 -34 12 -39 26 -12 7 13 6 23 -1 30 -19 19 -25 14 -25
-18z"/>
<path d="M2047 865 c2 -8 30 -21 61 -31 31 -9 61 -21 67 -26 18 -16 33 -8 44
23 14 42 14 49 -3 49 -8 0 -16 -10 -18 -22 -3 -24 -29 -27 -73 -9 -59 24 -83
29 -78 16z"/>
<path d="M610 855 c-7 -8 -20 -15 -29 -15 -18 0 -41 -18 -41 -32 0 -5 11 -1
25 8 28 18 33 7 13 -26 -19 -30 5 -42 48 -24 21 9 34 10 34 4 0 -6 -6 -13 -13
-16 -13 -5 -20 -63 -8 -65 26 -6 68 -4 78 3 17 14 27 -10 11 -30 -7 -9 -19
-21 -25 -25 -7 -4 -13 -13 -13 -19 0 -7 5 -6 15 2 11 9 19 10 28 1 11 -8 19
-5 37 14 24 25 22 55 -4 55 -8 0 -16 6 -19 13 -3 9 -9 9 -27 -1 -27 -17 -40
-7 -15 12 21 15 13 36 -14 36 -22 0 -36 41 -19 51 17 11 -9 39 -34 39 -17 0
-18 3 -8 15 7 8 8 15 2 15 -5 0 -15 -7 -22 -15z m25 -60 c-34 -28 -45 -31 -45
-12 0 21 22 37 50 37 l25 -1 -30 -24z m35 -55 c0 -5 -4 -10 -10 -10 -5 0 -10
5 -10 10 0 6 5 10 10 10 6 0 10 -4 10 -10z m13 -29 c-16 -20 -33 -19 -33 0 0
6 4 8 9 4 5 -3 12 -1 16 5 3 5 10 10 15 10 6 0 2 -9 -7 -19z m84 -65 c-4 -9
-11 -16 -17 -16 -11 0 -14 33 -3 44 11 10 26 -11 20 -28z"/>
<path d="M1833 839 c-6 -6 -9 -19 -6 -28 5 -13 3 -14 -8 -3 -15 14 -29 16 -29
4 0 -5 16 -17 35 -28 34 -18 46 -34 24 -34 -5 0 -7 -4 -4 -10 3 -5 11 -10 16
-10 6 0 7 5 4 10 -3 6 -1 10 4 10 6 0 11 7 11 15 0 8 9 20 20 27 27 17 25 23
-14 42 -40 19 -39 19 -53 5z m48 -19 c5 0 9 -7 9 -15 0 -18 -16 -20 -24 -2 -3
6 -3 2 0 -10 4 -18 2 -22 -10 -17 -9 3 -16 17 -16 31 0 19 4 24 16 19 9 -3 20
-6 25 -6z"/>
<path d="M360 815 c-73 -31 -110 -50 -110 -57 0 -11 7 -10 41 8 29 14 32 14
45 -3 19 -26 18 -29 -21 -47 -19 -9 -35 -19 -35 -22 0 -8 35 0 42 11 4 5 13
10 20 11 25 2 58 16 58 25 0 5 9 9 20 9 11 0 20 5 20 10 0 14 -16 13 -40 -2
-17 -11 -22 -10 -30 2 -14 21 -12 40 3 40 7 0 22 7 33 15 26 19 1 19 -46 0z"/>
<path d="M2023 819 c-28 -29 -3 -67 62 -94 80 -34 133 27 66 74 -37 26 -111
38 -128 20z m95 -20 c28 -10 47 -42 36 -61 -14 -23 -92 0 -112 33 -24 37 12
51 76 28z"/>
<path d="M1607 754 c-15 -13 -24 -24 -20 -24 12 1 58 38 53 43 -3 3 -18 -6
-33 -19z"/>
<path d="M1767 758 c-18 -19 -18 -20 4 -44 12 -13 27 -24 33 -24 5 0 0 9 -12
20 -25 23 -29 42 -8 34 11 -4 13 0 9 15 -3 12 -6 21 -7 20 0 0 -9 -10 -19 -21z"/>
<path d="M1810 765 c7 -9 15 -13 17 -11 7 7 -7 26 -19 26 -6 0 -6 -6 2 -15z"/>
<path d="M377 707 c-42 -22 -77 -44 -77 -49 0 -4 17 1 38 12 l37 20 3 -20 c2
-11 -6 -33 -18 -50 -12 -16 -17 -30 -11 -30 5 0 19 14 31 30 13 18 30 30 44
30 25 0 56 28 56 51 0 8 -6 21 -13 30 -11 15 -20 12 -90 -24z m81 -10 c3 -23
0 -27 -22 -27 -14 0 -26 2 -26 4 0 2 -3 11 -6 20 -4 11 -1 16 10 16 9 0 16 5
16 11 0 23 25 1 28 -24z"/>
<path d="M851 747 c2 -1 13 -9 24 -17 19 -14 19 -14 6 3 -7 9 -18 17 -24 17
-6 0 -8 -1 -6 -3z"/>
<path d="M1810 732 c0 -12 19 -26 26 -19 2 2 -2 10 -11 17 -9 8 -15 8 -15 2z"/>
<path d="M1730 723 c0 -4 10 -17 22 -30 28 -30 15 -43 -15 -15 -32 30 -42 28
-11 -3 28 -29 37 -30 53 -12 8 11 4 20 -19 40 -17 15 -30 24 -30 20z"/>
<path d="M1965 709 c-5 -15 1 -29 21 -50 15 -16 34 -29 41 -29 7 0 13 -4 13
-10 0 -11 49 -14 74 -4 23 9 20 47 -6 71 -34 31 -63 43 -102 43 -26 0 -36 -5
-41 -21z m111 -16 c33 -21 34 -73 1 -73 -30 0 -97 56 -97 82 0 18 4 19 36 13
21 -3 48 -13 60 -22z"/>
<path d="M1538 704 c-38 -20 -36 -28 2 -9 17 9 30 18 30 20 0 7 -1 6 -32 -11z"/>
<path d="M910 704 c0 -2 14 -10 30 -19 17 -9 30 -12 30 -7 0 4 -13 13 -30 19
-16 6 -30 10 -30 7z"/>
<path d="M1670 695 c10 -12 10 -18 -1 -31 -11 -14 -15 -13 -32 8 -13 17 -12
11 5 -19 21 -40 48 -64 48 -44 0 5 -7 11 -15 15 -19 7 -20 26 -1 26 8 0 16 6
19 13 5 13 -15 47 -28 47 -4 0 -2 -7 5 -15z"/>
<path d="M438 621 c-37 -25 -67 -53 -68 -61 0 -20 47 -74 54 -62 3 5 -1 18 -9
28 -19 25 -19 44 3 64 16 16 18 15 39 -9 24 -28 31 -14 11 19 -11 16 -9 22 7
34 18 14 22 13 37 -5 10 -12 23 -19 29 -17 7 2 2 14 -12 30 l-24 25 -67 -46z"/>
<path d="M1700 660 c0 -5 5 -10 10 -10 6 0 10 5 10 10 0 6 -4 10 -10 10 -5 0
-10 -4 -10 -10z"/>
<path d="M1920 660 c0 -5 5 -10 11 -10 16 0 39 -26 39 -45 0 -24 -28 -30 -50
-10 -11 10 -23 16 -26 13 -3 -4 8 -14 25 -24 17 -10 31 -22 31 -27 0 -4 8 -16
18 -26 18 -20 62 -45 62 -36 0 8 -39 45 -47 44 -17 -1 -14 35 3 48 14 11 23 9
51 -8 18 -11 33 -17 33 -12 0 5 -25 24 -55 42 -30 18 -59 39 -66 47 -13 16
-29 18 -29 4z"/>
<path d="M786 635 c-9 -13 -16 -28 -16 -34 0 -14 32 -23 44 -11 7 7 5 10 -7
10 -21 0 -23 28 -2 36 8 4 15 10 15 15 0 17 -18 9 -34 -16z"/>
<path d="M1067 639 c7 -7 15 -10 18 -7 3 3 -2 9 -12 12 -14 6 -15 5 -6 -5z"/>
<path d="M826 623 c-6 -14 -5 -15 5 -6 7 7 10 15 7 18 -3 3 -9 -2 -12 -12z"/>
<path d="M840 600 c-12 -17 -17 -30 -11 -30 5 0 13 9 16 20 3 11 13 20 21 20
11 0 13 -6 9 -21 -5 -15 -4 -19 4 -15 16 10 14 43 -4 49 -9 4 -22 -5 -35 -23z"/>
<path d="M1128 623 c7 -3 16 -2 19 1 4 3 -2 6 -13 5 -11 0 -14 -3 -6 -6z"/>
<path d="M1288 623 c7 -3 16 -2 19 1 4 3 -2 6 -13 5 -11 0 -14 -3 -6 -6z"/>
<path d="M1328 623 c7 -3 16 -2 19 1 4 3 -2 6 -13 5 -11 0 -14 -3 -6 -6z"/>
<path d="M1540 600 c0 -5 7 -7 15 -4 18 7 20 -7 4 -23 -26 -26 8 -54 39 -34
20 12 -12 71 -38 71 -11 0 -20 -4 -20 -10z m50 -34 c0 -8 -4 -17 -9 -21 -12
-7 -24 12 -16 25 9 15 25 12 25 -4z"/>
<path d="M497 539 l-67 -61 27 -28 c23 -25 62 -32 47 -9 -3 5 -10 7 -15 4 -5
-4 -9 0 -9 9 0 8 -6 16 -12 18 -9 3 -8 10 5 23 15 15 23 16 43 6 31 -14 55
-14 32 0 -22 12 -23 52 -4 68 12 10 18 7 32 -14 12 -18 20 -23 28 -15 7 7 3
18 -15 35 l-24 25 -68 -61z"/>
<path d="M918 593 c6 -2 18 -2 25 0 6 3 1 5 -13 5 -14 0 -19 -2 -12 -5z"/>
<path d="M970 586 c0 -8 5 -16 12 -18 7 -3 9 -14 3 -34 l-8 -29 -7 30 -7 30
-7 -27 c-9 -30 -2 -48 19 -48 8 0 21 21 30 52 15 51 12 76 -5 48 -7 -10 -10
-11 -10 -2 0 6 -4 12 -10 12 -5 0 -10 -6 -10 -14z"/>
<path d="M1507 594 c-3 -4 -5 -18 -3 -33 2 -14 1 -20 -1 -13 -8 23 -25 12 -20
-13 3 -16 0 -24 -7 -22 -16 5 -20 57 -5 57 7 0 10 2 7 5 -3 3 -13 3 -22 -1
-18 -7 -22 -39 -6 -49 6 -3 10 -17 10 -30 0 -13 5 -27 10 -30 6 -3 10 -1 10 6
0 20 31 48 46 42 8 -3 14 1 14 11 0 9 -5 16 -11 16 -7 0 -10 12 -7 30 4 29 -1
37 -15 24z"/>
<path d="M941 575 c0 -6 -13 -11 -28 -10 -35 0 -39 -34 -6 -46 18 -6 25 -4 33
12 6 11 9 28 7 37 -3 9 -5 12 -6 7z m-21 -30 c0 -8 -4 -15 -10 -15 -5 0 -10 7
-10 15 0 8 5 15 10 15 6 0 10 -7 10 -15z"/>
<path d="M1122 567 c-6 -7 -9 -22 -6 -34 3 -11 1 -24 -5 -27 -6 -4 -11 -2 -11
3 0 6 -7 11 -15 11 -8 0 -15 -7 -15 -15 0 -8 9 -15 19 -15 11 0 21 -6 24 -12
9 -25 20 2 21 52 1 27 1 50 0 50 -1 0 -6 -6 -12 -13z"/>
<path d="M1356 540 l6 -45 -20 25 -20 25 7 -35 c5 -26 13 -36 29 -38 19 -3 22
1 22 30 -1 18 -7 44 -16 58 -14 24 -14 23 -8 -20z"/>
<path d="M1627 560 c3 -11 7 -20 9 -20 2 0 4 9 4 20 0 11 -4 20 -9 20 -5 0 -7
-9 -4 -20z"/>
<path d="M1842 564 c-16 -28 -1 -63 41 -99 44 -38 70 -43 93 -21 20 20 18 39
-6 54 -21 13 -27 3 -9 -15 14 -14 3 -33 -18 -33 -9 0 -31 11 -50 26 -24 18
-33 33 -33 54 0 36 13 45 34 24 9 -8 16 -12 16 -7 0 31 -53 44 -68 17z"/>
<path d="M1020 542 c0 -17 -3 -39 -6 -49 -5 -17 -5 -17 9 0 8 9 20 17 28 17
12 0 12 2 0 9 -7 5 -11 13 -7 19 3 5 -1 15 -9 22 -13 11 -15 8 -15 -18z"/>
<path d="M1220 544 c-13 -34 -13 -59 3 -72 9 -8 11 0 9 39 -4 52 9 64 34 32
12 -16 13 -16 14 -2 0 16 -19 29 -41 29 -5 0 -14 -12 -19 -26z"/>
<path d="M1380 551 c0 -3 5 -13 10 -21 8 -13 11 -13 19 -1 7 10 11 6 16 -18 3
-17 11 -31 17 -31 6 0 7 7 3 18 -4 9 -10 27 -12 38 -3 15 -13 22 -29 22 -13 0
-24 -3 -24 -7z"/>
<path d="M1291 528 c1 -7 5 -24 9 -38 8 -24 8 -24 9 7 1 17 -3 35 -9 38 -5 3
-10 0 -9 -7z"/>
<path d="M1400 503 c0 -5 5 -15 10 -23 8 -12 10 -11 10 8 0 12 -4 22 -10 22
-5 0 -10 -3 -10 -7z"/>
<path d="M1766 494 c-13 -34 25 -77 62 -69 35 8 62 -4 62 -27 0 -18 -4 -20
-36 -15 -25 4 -34 2 -31 -6 6 -18 62 -20 76 -3 10 12 9 21 -4 45 -14 28 -20
31 -60 31 -38 0 -45 3 -45 20 0 17 4 19 27 14 24 -7 26 -6 13 7 -20 19 -57 21
-64 3z"/>
<path d="M637 482 c-28 -17 -35 -48 -18 -81 13 -23 -2 -46 -24 -37 -12 4 -16
14 -12 31 6 32 -9 42 -23 15 -17 -32 -2 -70 27 -70 35 0 66 38 58 70 -11 47
-10 54 8 58 15 3 18 0 12 -17 -5 -15 -2 -21 9 -21 20 0 22 56 3 63 -7 3 -25
-2 -40 -11z"/>
<path d="M1267 480 c-9 -11 -13 -20 -7 -20 5 0 14 9 20 20 6 11 9 20 8 20 -2
0 -11 -9 -21 -20z"/>
<path d="M1150 470 c0 -5 5 -10 10 -10 6 0 10 5 10 10 0 6 -4 10 -10 10 -5 0
-10 -4 -10 -10z"/>
<path d="M708 435 c-10 -13 -18 -28 -18 -34 0 -5 -6 -14 -14 -18 -7 -4 -21
-22 -30 -40 -34 -67 -12 -49 48 39 37 55 49 100 14 53z"/>
<path d="M1700 436 c0 -8 4 -26 10 -41 11 -29 2 -27 -37 8 -13 11 -26 17 -30
14 -3 -4 11 -22 32 -39 40 -34 54 -48 79 -83 13 -17 15 -17 16 -4 0 9 -6 22
-14 28 -7 6 -20 38 -27 71 -12 55 -29 81 -29 46z"/>
<path d="M747 434 c-3 -3 -1 -14 5 -24 8 -13 8 -21 -1 -31 -21 -26 -61 -90
-61 -99 0 -24 17 -6 39 40 13 28 28 50 32 50 5 0 9 7 9 15 0 17 16 20 25 5 7
-11 25 -4 25 8 0 7 -52 42 -62 42 -3 0 -7 -3 -11 -6z"/>
<path d="M1600 390 c0 -5 -9 -10 -20 -10 -22 0 -28 -28 -7 -36 8 -3 14 -10 15
-17 1 -15 24 -78 35 -94 5 -7 13 -13 19 -13 7 0 7 5 -1 14 -14 17 -23 55 -15
68 3 5 21 -2 39 -16 40 -31 68 -35 37 -6 -12 11 -26 20 -32 20 -5 0 -10 15
-10 33 0 20 -8 41 -18 50 -21 19 -42 22 -42 7z m34 -26 c11 -28 6 -44 -13 -44
-23 0 -35 28 -20 46 15 18 25 18 33 -2z"/>
<path d="M812 358 c-67 -74 -91 -103 -86 -107 2 -2 15 6 29 19 32 30 59 21 53
-20 -4 -29 5 -40 16 -21 8 12 27 153 22 158 -2 3 -18 -10 -34 -29z m10 -33
c-2 -14 -11 -25 -18 -25 -18 0 -18 9 3 32 21 23 21 23 15 -7z"/>
<path d="M1504 338 c3 -13 6 -53 6 -90 0 -54 3 -68 15 -68 10 0 15 10 15 29 0
39 28 50 52 19 39 -51 15 8 -28 68 -47 65 -71 82 -60 42z m56 -70 c0 -5 -7 -8
-15 -8 -10 0 -15 10 -15 27 0 26 1 26 15 7 8 -10 15 -22 15 -26z"/>
<path d="M917 332 c-22 -24 -22 -29 9 -69 29 -39 26 -66 -8 -61 -15 2 -24 11
-26 26 -4 28 -22 29 -22 1 0 -24 22 -49 44 -49 18 0 56 38 56 56 0 6 -12 23
-26 37 -14 15 -24 32 -22 38 6 17 38 20 38 3 0 -8 5 -14 10 -14 11 0 13 11 4
34 -8 21 -37 20 -57 -2z"/>
<path d="M991 278 c-7 -29 -16 -68 -18 -85 l-5 -33 43 1 44 1 -33 9 c-24 7
-32 14 -28 25 3 9 6 23 6 31 0 12 7 14 30 10 17 -4 30 -2 30 3 0 6 -11 10 -25
10 -15 0 -25 6 -25 14 0 30 13 46 39 46 20 0 23 2 11 10 -36 23 -55 12 -69
-42z"/>
<path d="M1393 324 c-9 -4 -8 -17 3 -52 7 -26 14 -59 14 -74 0 -32 13 -42 45
-34 47 12 51 37 19 135 -2 8 -7 11 -10 8 -4 -3 0 -29 7 -57 11 -44 11 -53 -1
-60 -27 -18 -35 -10 -48 43 -17 73 -16 80 9 74 13 -3 19 -1 16 6 -4 13 -35 19
-54 11z"/>
<path d="M1122 313 c-17 -7 -52 -77 -52 -106 0 -28 31 -67 53 -67 16 0 51 40
42 48 -2 2 -12 -3 -21 -12 -24 -25 -39 -15 -42 29 -5 56 5 85 28 85 11 0 20
-6 20 -14 0 -8 7 -16 15 -20 9 -3 15 -18 15 -35 0 -68 44 -109 81 -75 14 13
19 31 19 74 0 43 -5 61 -19 74 -24 22 -57 14 -66 -15 -7 -20 -8 -19 -33 9 -15
17 -33 28 -40 25z m132 -45 c9 -34 7 -91 -4 -108 -26 -42 -62 41 -46 107 8 30
42 31 50 1z"/>
<path d="M1362 267 c4 -43 2 -54 -5 -40 -6 10 -13 20 -16 23 -4 3 -12 17 -18
33 -7 15 -17 27 -23 27 -6 0 -9 -12 -6 -27 2 -16 5 -54 5 -85 1 -46 4 -58 17
-58 12 0 14 7 10 30 -3 17 -9 44 -12 61 -4 22 -3 29 5 25 6 -4 11 -11 11 -16
0 -14 53 -90 63 -90 5 0 6 7 3 16 -4 10 -11 46 -16 82 -11 82 -24 95 -18 19z"/>
</g>
</svg>
